<svg width="52" height="46" viewBox="0 0 52 46" fill="none" xmlns="http://www.w3.org/2000/svg">
<path d="M28 30.0833H14V32.4583C14 33.0882 13.7234 33.6923 13.2312 34.1377C12.7389 34.5831 12.0712 34.8333 11.375 34.8333H9.625C8.92881 34.8333 8.26113 34.5831 7.76884 34.1377C7.27656 33.6923 7 33.0882 7 32.4583V29.8141C5.97612 29.4864 5.08974 28.8794 4.46292 28.077C3.8361 27.2745 3.49969 26.3159 3.5 25.3333V20.5833C3.5 19.6016 3.829 18.6896 4.3925 17.9328L6.293 7.16613C6.49036 6.05017 7.12103 5.03444 8.07174 4.30139C9.02244 3.56834 10.2309 3.16599 11.48 3.16663H30.52C31.7682 3.16756 32.9751 3.57081 33.9244 4.30405C34.8737 5.03728 35.5032 6.05254 35.7 7.16771L37.5952 17.9185C38.1657 18.6785 38.4982 19.5969 38.4982 20.5833V25.3333C38.4986 26.3159 38.1621 27.2745 37.5353 28.077C36.9085 28.8794 36.0221 29.4864 34.9982 29.8141V32.4583C34.9982 33.0882 34.7217 33.6923 34.2294 34.1377C33.7371 34.5831 33.0694 34.8333 32.3732 34.8333H30.6232C29.9271 34.8333 29.2594 34.5831 28.7671 34.1377C28.2748 33.6923 27.9982 33.0882 27.9982 32.4583V30.0833H28ZM33.6875 15.8491L32.2455 7.66646C32.1798 7.29501 31.9701 6.95686 31.6539 6.71257C31.3377 6.46829 30.9358 6.33383 30.52 6.33329H11.4782C11.0619 6.33308 10.6591 6.4672 10.3422 6.71155C10.0253 6.9559 9.81504 7.29447 9.74925 7.66646L8.3055 15.8507C8.45333 15.8393 8.60163 15.8335 8.75 15.8333H33.25C33.397 15.8333 33.544 15.838 33.6875 15.8491ZM30.625 25.3333C30.9697 25.3333 31.3111 25.2719 31.6295 25.1525C31.948 25.0332 32.2374 24.8582 32.4812 24.6377C32.7249 24.4171 32.9183 24.1553 33.0502 23.8672C33.1821 23.579 33.25 23.2702 33.25 22.9583C33.25 22.6464 33.1821 22.3376 33.0502 22.0494C32.9183 21.7613 32.7249 21.4995 32.4812 21.2789C32.2374 21.0584 31.948 20.8834 31.6295 20.7641C31.3111 20.6447 30.9697 20.5833 30.625 20.5833C29.9288 20.5833 29.2611 20.8335 28.7688 21.2789C28.2766 21.7243 28 22.3284 28 22.9583C28 23.5882 28.2766 24.1923 28.7688 24.6377C29.2611 25.0831 29.9288 25.3333 30.625 25.3333ZM11.375 25.3333C11.7197 25.3333 12.0611 25.2719 12.3795 25.1525C12.698 25.0332 12.9874 24.8582 13.2312 24.6377C13.4749 24.4171 13.6683 24.1553 13.8002 23.8672C13.9321 23.579 14 23.2702 14 22.9583C14 22.6464 13.9321 22.3376 13.8002 22.0494C13.6683 21.7613 13.4749 21.4995 13.2312 21.2789C12.9874 21.0584 12.698 20.8834 12.3795 20.7641C12.0611 20.6447 11.7197 20.5833 11.375 20.5833C10.6788 20.5833 10.0111 20.8335 9.51884 21.2789C9.02656 21.7243 8.75 22.3284 8.75 22.9583C8.75 23.5882 9.02656 24.1923 9.51884 24.6377C10.0111 25.0831 10.6788 25.3333 11.375 25.3333ZM12.607 8.06546C13.0711 8.06546 13.5162 8.23228 13.8444 8.52921C14.1726 8.82614 14.357 9.22887 14.357 9.64879V12.8155C14.357 13.2354 14.1726 13.6381 13.8444 13.935C13.5162 14.232 13.0711 14.3988 12.607 14.3988C12.1429 14.3988 11.6978 14.232 11.3696 13.935C11.0414 13.6381 10.857 13.2354 10.857 12.8155V9.64879C10.857 9.22887 11.0414 8.82614 11.3696 8.52921C11.6978 8.23228 12.1429 8.06546 12.607 8.06546Z" fill="#7E2D2D"/>
<path d="M27.5005 40.85H27.0005V41.35V43.675C27.0005 44.1381 26.7933 44.5965 26.4001 44.9447C26.005 45.2947 25.4573 45.5 24.8754 45.5H23.1253C22.5434 45.5 21.9957 45.2947 21.6006 44.9447C21.2074 44.5965 21.0002 44.1381 21.0002 43.675V41.0865V40.7192L20.6497 40.6094C19.7141 40.3162 18.9142 39.7764 18.3538 39.0741C17.7942 38.3728 17.4997 37.5434 17.5 36.7002V36.7V32.05C17.5 31.2065 17.7881 30.4186 18.2905 29.758L18.3633 29.6623L18.3846 29.544L20.2852 19.0042C20.4585 18.045 21.0148 17.1579 21.8732 16.51C22.7327 15.8612 23.8341 15.4994 24.9802 15.5H24.9804H44.0211C45.1663 15.5009 46.2662 15.8634 47.1244 16.5123C47.9815 17.1604 48.5367 18.047 48.7095 19.0056L50.6049 29.53L50.6264 29.6494L50.7002 29.7456C51.2088 30.4089 51.5 31.2024 51.5 32.05V36.7V36.7002C51.5003 37.5434 51.2058 38.3728 50.6462 39.0741C50.0858 39.7764 49.2859 40.3162 48.3503 40.6094L47.9998 40.7192V41.0865V43.675C47.9998 44.1381 47.7926 44.5965 47.3994 44.9447C47.0043 45.2947 46.4566 45.5 45.8747 45.5H44.1246C43.5427 45.5 42.995 45.2947 42.5999 44.9447C42.2067 44.5965 41.9995 44.1381 41.9995 43.675V41.35H41.5012V40.85H41.4995H40.9995H27.5005ZM47.1513 27.9141L47.7956 27.9628L47.6811 27.3269L46.239 19.3165L46.239 19.3162C46.1492 18.8195 45.8653 18.3814 45.4569 18.0725C45.0497 17.7645 44.5408 17.6007 44.022 17.6H44.0214H24.9789C24.9788 17.6 24.9787 17.6 24.9786 17.6C24.4592 17.5998 23.9494 17.7632 23.5413 18.0712C23.132 18.3801 22.8474 18.8188 22.7575 19.3162L22.7575 19.3164L21.3137 27.3284L21.1991 27.9643L21.8434 27.9156C21.9789 27.9054 22.1149 27.9002 22.2509 27.9H46.7515C46.8882 27.9 47.0224 27.9043 47.1513 27.9141ZM44.1264 37.2C44.5289 37.2 44.9286 37.1298 45.3032 36.9924C45.6777 36.855 46.0217 36.6523 46.3141 36.3933C46.6066 36.1342 46.8424 35.8233 47.0046 35.4766C47.1669 35.1295 47.2515 34.755 47.2515 34.375C47.2515 33.995 47.1669 33.6205 47.0046 33.2734C46.8424 32.9267 46.6066 32.6158 46.3141 32.3567C46.0217 32.0977 45.6777 31.895 45.3032 31.7576C44.9286 31.6202 44.5289 31.55 44.1264 31.55C43.3158 31.55 42.528 31.8346 41.9386 32.3567C41.3472 32.8805 41.0012 33.6048 41.0012 34.375C41.0012 35.1452 41.3472 35.8695 41.9386 36.3933C42.528 36.9154 43.3158 37.2 44.1264 37.2ZM24.8754 37.2C25.2779 37.2 25.6776 37.1298 26.0522 36.9924C26.4268 36.855 26.7707 36.6523 27.0632 36.3933C27.3557 36.1342 27.5914 35.8233 27.7536 35.4766C27.9159 35.1295 28.0005 34.755 28.0005 34.375C28.0005 33.995 27.9159 33.6205 27.7536 33.2734C27.5914 32.9267 27.3557 32.6158 27.0632 32.3567C26.7707 32.0977 26.4268 31.895 26.0522 31.7576C25.6776 31.6202 25.2779 31.55 24.8754 31.55C24.0648 31.55 23.2771 31.8346 22.6876 32.3567C22.0962 32.8805 21.7503 33.6048 21.7503 34.375C21.7503 35.1452 22.0962 35.8695 22.6876 36.3933C23.2771 36.9154 24.0648 37.2 24.8754 37.2ZM26.1075 20.2957C26.4573 20.2957 26.7824 20.4193 27.0134 20.624C27.2426 20.8269 27.3575 21.0882 27.3575 21.3457V24.4457C27.3575 24.7032 27.2426 24.9645 27.0134 25.1674C26.7824 25.3721 26.4573 25.4957 26.1075 25.4957C25.7576 25.4957 25.4325 25.3721 25.2015 25.1674C24.9724 24.9645 24.8574 24.7032 24.8574 24.4457V21.3457C24.8574 21.0882 24.9724 20.8269 25.2015 20.624C25.4325 20.4193 25.7576 20.2957 26.1075 20.2957Z" fill="#7E2D2D" stroke="#362828"/>
</svg>
