<svg width="76" height="46" viewBox="0 0 76 46" fill="none" xmlns="http://www.w3.org/2000/svg">
<g clip-path="url(#clip0_106_75)">
<path d="M17.3909 16.9794L15.9916 31.8301L28.8998 25.6167C27.6024 24.5247 26.427 23.1382 25.2369 21.4413C24.9302 21.0023 24.743 20.8198 24.5385 20.7098C24.365 20.6172 22.348 20.038 21.2295 19.6047C19.8181 19.0578 18.5387 18.1797 17.3909 16.9794ZM17.7353 13.3151C19.0083 15.277 20.4714 16.5581 22.1245 17.1991C23.0217 17.5466 25.2587 18.1887 25.7138 18.4338C26.3084 18.7536 26.7701 19.2044 27.2879 19.9434C28.667 21.9121 30 23.3829 31.4868 24.3716L33.5248 23.3906C31.8242 20.4842 29.5373 17.9801 26.816 16.0445C24.128 14.115 21.0718 12.7851 17.8466 12.1414L17.7353 13.3151ZM16.8913 9.3732C20.9844 9.94532 24.8836 11.5103 28.2621 13.9369C31.7336 16.4176 34.5048 19.6543 36.4001 23.3738C36.4784 23.5274 36.5254 23.6956 36.5385 23.8682C36.5516 24.0408 36.5303 24.2143 36.4761 24.3784C36.4219 24.5425 36.3358 24.6936 36.2229 24.8229C36.1101 24.9522 35.9728 25.0569 35.8194 25.1308L15.0625 35.1221C14.8611 35.2188 14.6382 35.2595 14.4165 35.2398C14.1948 35.2202 13.9821 35.141 13.8001 35.0103C13.6181 34.8796 13.4733 34.702 13.3803 34.4957C13.2873 34.2893 13.2495 34.0616 13.2707 33.8355L15.4667 10.5255C15.4831 10.3534 15.5334 10.1864 15.6145 10.0345C15.6956 9.88269 15.8059 9.74907 15.9387 9.6417C16.0716 9.53433 16.2243 9.45539 16.3877 9.40962C16.5511 9.36385 16.7219 9.35218 16.8899 9.37531L16.8913 9.3732ZM19.0019 23.0242C18.728 22.8285 18.5416 22.5298 18.4835 22.1938C18.4255 21.8578 18.5006 21.512 18.6923 21.2325C18.8841 20.953 19.1768 20.7627 19.506 20.7035C19.8353 20.6442 20.1741 20.7209 20.4479 20.9166C20.7218 21.1123 20.9082 21.411 20.9663 21.747C21.0243 22.083 20.9492 22.4288 20.7575 22.7082C20.5657 22.9877 20.273 23.178 19.9438 23.2373C19.6146 23.2965 19.2757 23.2199 19.0019 23.0242ZM19.9306 28.3992C19.6567 28.2035 19.4702 27.9048 19.4122 27.5688C19.3541 27.2328 19.4293 26.887 19.621 26.6075C19.8128 26.328 20.1055 26.1377 20.4347 26.0785C20.7639 26.0192 21.1027 26.0959 21.3766 26.2916C21.6504 26.4873 21.8369 26.786 21.895 27.122C21.953 27.458 21.8779 27.8038 21.6862 28.0832C21.4944 28.3627 21.2017 28.553 20.8725 28.6123C20.5432 28.6715 20.2044 28.5949 19.9306 28.3992Z" fill="#984A82"/>
</g>
<path d="M48.2583 13.0258C48.728 13.5299 48.9373 14.1678 48.8402 14.7996L48.111 19.633C48.0208 20.2351 47.6599 20.7869 47.1004 21.1784L46.485 25.5163C46.4432 25.8103 46.2727 26.0813 46.0058 26.2779C45.7388 26.4746 45.3941 26.5833 45.0369 26.5833H35.9631C35.6059 26.5833 35.2612 26.4746 34.9942 26.2779C34.7273 26.0813 34.5568 25.8103 34.515 25.5163L33.8996 21.1784C33.3401 20.7869 32.9792 20.2351 32.889 19.633L32.1598 14.7996C32.064 14.1681 32.2737 13.5308 32.7431 13.027L31.75 6.04163H49.25L48.2583 13.0258ZM36.9169 21.75L37.2596 24.1666H43.7404L44.0831 21.75H36.9169ZM35.5446 12.0833H45.4554L45.9702 8.45829H35.0298L35.5446 12.0833ZM35.7838 19.3333H45.2163L45.9454 14.5H35.0546L35.7838 19.3333Z" fill="#984A82"/>
<path d="M33.2083 4.83329C33.2083 4.19235 33.5156 3.57766 34.0626 3.12445C34.6096 2.67124 35.3514 2.41663 36.125 2.41663H44.875C45.6485 2.41663 46.3904 2.67124 46.9374 3.12445C47.4844 3.57766 47.7917 4.19235 47.7917 4.83329H48.5208C49.101 4.83329 49.6574 5.02425 50.0676 5.36416C50.4779 5.70407 50.7083 6.16509 50.7083 6.64579C50.7083 7.1265 50.4779 7.58751 50.0676 7.92742C49.6574 8.26733 49.101 8.45829 48.5208 8.45829H32.4792C31.899 8.45829 31.3426 8.26733 30.9324 7.92742C30.5221 7.58751 30.2917 7.1265 30.2917 6.64579C30.2917 6.16509 30.5221 5.70407 30.9324 5.36416C31.3426 5.02425 31.899 4.83329 32.4792 4.83329H33.2083Z" fill="#984A82"/>
<path d="M45.9167 17.3334H68.0833C69.3431 17.3334 70.5513 17.7548 71.4421 18.5049C72.3329 19.2551 72.8333 20.2725 72.8333 21.3334V34.6667C72.8333 35.7276 72.3329 36.745 71.4421 37.4951C70.5513 38.2453 69.3431 38.6667 68.0833 38.6667H45.9167C44.6569 38.6667 43.4487 38.2453 42.5579 37.4951C41.6671 36.745 41.1667 35.7276 41.1667 34.6667V21.3334C41.1667 20.2725 41.6671 19.2551 42.5579 18.5049C43.4487 17.7548 44.6569 17.3334 45.9167 17.3334ZM45.9167 20C45.4967 20 45.094 20.1405 44.7971 20.3906C44.5001 20.6406 44.3333 20.9798 44.3333 21.3334V34.6667C44.3333 35.0203 44.5001 35.3595 44.7971 35.6095C45.094 35.8596 45.4967 36 45.9167 36H68.0833C68.5032 36 68.906 35.8596 69.2029 35.6095C69.4998 35.3595 69.6667 35.0203 69.6667 34.6667V21.3334C69.6667 20.9798 69.4998 20.6406 69.2029 20.3906C68.906 20.1405 68.5032 20 68.0833 20H45.9167ZM63.1338 26.6667C62.7816 27.811 61.9882 28.8245 60.878 29.5479C59.7678 30.2714 58.4038 30.664 57 30.664C55.5962 30.664 54.2322 30.2714 53.122 29.5479C52.0118 28.8245 51.2183 27.811 50.8662 26.6667H44.3333V24H69.6667V26.6667H63.1338ZM59.7423 26.6667H54.2577C54.5356 27.0721 54.9353 27.4087 55.4167 27.6427C55.8981 27.8767 56.4442 27.9999 57 27.9999C57.5558 27.9999 58.1019 27.8767 58.5833 27.6427C59.0646 27.4087 59.4644 27.0721 59.7423 26.6667Z" fill="#984A82"/>
<defs>
<clipPath id="clip0_106_75">
<rect width="30.4588" height="30.6715" fill="white" transform="matrix(0.813614 0.581406 -0.565749 0.824577 17.3524 3)"/>
</clipPath>
</defs>
</svg>
