<svg width="51" height="50" viewBox="0 0 51 50" fill="none" xmlns="http://www.w3.org/2000/svg">
<path d="M20.367 3.73514C20.3493 2.99127 20.5746 2.26152 20.9935 1.70644C21.4124 1.15136 21.9904 0.816409 22.6005 0.775278L29.5012 0.310022C30.1112 0.26889 30.7033 0.524946 31.1472 1.02186C31.5911 1.51877 31.8504 2.21584 31.8682 2.95971L32.4432 2.92094C32.9008 2.89009 33.3448 3.08213 33.6778 3.45482C34.0107 3.8275 34.2052 4.3503 34.2184 4.90821C34.2317 5.46611 34.0627 6.01342 33.7486 6.42973C33.4344 6.84604 33.0009 7.09725 32.5433 7.1281L19.892 7.98107C19.4345 8.01192 18.9904 7.81988 18.6575 7.44719C18.3246 7.07451 18.1301 6.55171 18.1168 5.99381C18.1035 5.4359 18.2726 4.88859 18.5867 4.47228C18.9008 4.05597 19.3344 3.80476 19.7919 3.77391L20.367 3.73514Z" fill="#984A82"/>
<path d="M5.52406 36.535L5.30342 46.7547L44.9111 46.7547L45.1317 36.535L37.9315 30.5278L12.9812 30.5278L5.52406 36.535ZM0.597701 35.3959L10.6748 27.2825L40.3805 27.2825L50.1072 35.3959L49.862 46.7547C49.8434 47.6154 49.304 48.4409 48.3624 49.0495C47.4207 49.6582 46.1541 50.0001 44.841 50.0001L5.23336 50.0001C3.92028 50.0001 2.66837 49.6582 1.75303 49.0495C0.837683 48.4409 0.333887 47.6154 0.35247 46.7547L0.597701 35.3959ZM34.8724 38.6413C34.2917 40.0339 33.0245 41.2673 31.2698 42.1478C29.5151 43.0283 27.3721 43.506 25.1774 43.506C22.9826 43.506 20.8603 43.0283 19.1436 42.1478C17.4269 41.2673 16.213 40.0339 15.6924 38.6413L5.47859 38.6413L5.54865 35.3959L45.1563 35.3959L45.0862 38.6413L34.8724 38.6413ZM29.5699 38.6413L20.9949 38.6413C21.4188 39.1346 22.0349 39.5442 22.7814 39.8291C23.5279 40.1139 24.3783 40.2638 25.2474 40.2638C26.1164 40.2638 26.9734 40.1139 27.7321 39.8291C28.4909 39.5442 29.1247 39.1346 29.5699 38.6413Z" fill="#984A82"/>
<path d="M32.3613 18.3273C32.6945 18.8206 32.8342 19.4449 32.7498 20.0632L32.1139 24.7931C32.0351 25.3824 31.7593 25.9224 31.3414 26.3055L30.7992 30.5507C30.7624 30.8384 30.6319 31.1036 30.4323 31.296C30.2328 31.4885 29.9781 31.5948 29.7166 31.5949H23.0742C22.8127 31.5948 22.5626 31.4885 22.3713 31.296C22.1801 31.1036 22.061 30.8384 22.0366 30.5507L21.6777 26.3055C21.2764 25.9224 21.0239 25.3824 20.9706 24.7931L20.5389 20.0632C20.4821 19.4451 20.6491 18.8215 21.0034 18.3284L20.4239 11.4924H33.2348L32.3613 18.3273ZM23.8745 26.8649L24.0743 29.2299H28.8186L29.1205 26.8649H23.8745ZM23.0741 17.4049H30.3293L30.7828 13.8574H22.7739L23.0741 17.4049ZM23.096 24.4999H30.0011L30.637 19.7699H22.6644L23.096 24.4999Z" fill="#984A82"/>
</svg>
