<svg width="50" height="50" viewBox="0 0 50 50" fill="none" xmlns="http://www.w3.org/2000/svg">
<path d="M12.1918 45.3932C14.3475 45.3932 16.4149 44.4225 17.9391 42.6946C19.4634 40.9668 20.3197 38.6233 20.3197 36.1798C20.3197 33.7363 19.4634 31.3928 17.9391 29.665C16.4149 27.9371 14.3475 26.9664 12.1918 26.9664C10.0362 26.9664 7.96884 27.9371 6.44456 29.665C4.92029 31.3928 4.06396 33.7363 4.06396 36.1798C4.06396 38.6233 4.92029 40.9668 6.44456 42.6946C7.96884 44.4225 10.0362 45.3932 12.1918 45.3932ZM12.1918 47.6965C6.58056 47.6965 2.03198 42.5405 2.03198 36.1798C2.03198 29.8191 6.58056 24.6631 12.1918 24.6631C17.8031 24.6631 22.3517 29.8191 22.3517 36.1798C22.3517 42.5405 17.8031 47.6965 12.1918 47.6965Z" fill="#4E9F32"/>
<path d="M7.11192 36.18C7.11192 34.2106 6.56532 32.346 5.58794 30.8063C4.59444 32.3715 4.0612 34.2517 4.06396 36.18C4.06396 38.1493 4.61056 40.0139 5.58794 41.5537C6.58145 39.9884 7.11468 38.1082 7.11192 36.18ZM2.03199 36.18C2.0304 34.5162 2.34755 32.8719 2.9615 31.3607C3.57546 29.8495 4.47159 28.5074 5.58794 27.4272C6.7043 28.5074 7.60042 29.8495 8.21438 31.3607C8.82834 32.8719 9.14548 34.5162 9.1439 36.18C9.14548 37.8437 8.82834 39.488 8.21438 40.9992C7.60042 42.5104 6.7043 43.8525 5.58794 44.9327C4.47159 43.8525 3.57546 42.5104 2.9615 40.9992C2.34755 39.488 2.0304 37.8437 2.03199 36.18ZM17.2718 36.18C17.2718 38.1493 17.8184 40.0139 18.7958 41.5537C19.7893 39.9884 20.3225 38.1082 20.3198 36.18C20.3198 34.2106 19.7731 32.346 18.7958 30.8063C17.8023 32.3715 17.269 34.2517 17.2718 36.18ZM22.3517 36.18C22.3533 37.8437 22.0362 39.488 21.4222 40.9992C20.8083 42.5104 19.9121 43.8525 18.7958 44.9327C17.6794 43.8525 16.7833 42.5104 16.1693 40.9992C15.5554 39.488 15.2382 37.8437 15.2398 36.18C15.2382 34.5162 15.5554 32.8719 16.1693 31.3607C16.7833 29.8495 17.6794 28.5074 18.7958 27.4272C19.9121 28.5074 20.8083 29.8495 21.4222 31.3607C22.0362 32.8719 22.3533 34.5162 22.3517 36.18Z" fill="#4E9F32"/>
<path d="M13.2078 35.0283H21.3357V37.3317H13.2078V46.545H11.1759V37.3317H3.04797V35.0283H11.1759V25.8149H13.2078V35.0283Z" fill="#4E9F32"/>
<g clip-path="url(#clip0_116_17)">
<path d="M28.9744 25.0893L28.9768 25.089C29.208 25.0527 29.48 25.0007 29.7906 24.9302C33.6379 24.0783 36.3823 21.4873 36.3823 18.4946C36.3823 16.6278 35.3057 14.9339 33.632 13.7263C31.9551 12.5164 29.6443 11.7634 27.0588 11.7634C24.4733 11.7634 22.1625 12.5164 20.4857 13.7263C18.8119 14.9339 17.7353 16.6278 17.7353 18.4946C17.7353 20.6267 19.1252 22.5773 21.4005 23.839L21.4115 23.8451L21.4228 23.8506L21.4863 23.8818L21.4875 23.8824L23.0294 24.6334V28.625V29.756L23.8659 28.9948L27.9946 25.238L28.9744 25.0893ZM29.4249 27.17L29.2771 27.1933L29.1664 27.2941L22.6952 33.1826L22.6951 33.1827C22.5233 33.3391 22.2954 33.4527 22.0375 33.5008C21.7797 33.5488 21.5118 33.5274 21.2705 33.4411C21.0292 33.3548 20.8324 33.2103 20.6987 33.0352C20.5658 32.8611 20.5 32.6637 20.5 32.4681C20.5 32.4681 20.5 32.4681 20.5 32.4681L20.5 26.159V25.8436L20.2153 25.7077C20.1447 25.6741 20.0753 25.6388 20.007 25.602C17.0496 23.9617 15.2059 21.3607 15.2059 18.4946C15.2059 16.1041 16.4851 13.9035 18.6256 12.2839C20.7665 10.6641 23.7464 9.64774 27.0588 9.64774C30.3712 9.64774 33.3512 10.6641 35.492 12.2839C37.6325 13.9035 38.9118 16.1041 38.9118 18.4946C38.9118 22.4184 35.4309 25.8679 30.4341 26.9763L30.432 26.9768C30.0992 27.0521 29.7632 27.1165 29.4249 27.17ZM44.4906 19.4765L44.2059 19.6123V19.9278V26.2369C44.2059 26.4324 44.1401 26.6299 44.0072 26.804C43.8735 26.9791 43.6767 27.1236 43.4354 27.2099C43.194 27.2962 42.9262 27.3176 42.6683 27.2695C42.4105 27.2215 42.1825 27.1079 42.0107 26.9515L42.0106 26.9513L39.2648 24.4534L40.5492 22.4988L40.8398 22.7635L41.6765 23.5255V22.3938V18.4022L43.2184 17.6511L43.2196 17.6505L43.2831 17.6194L43.2943 17.6139L43.3053 17.6078C45.5826 16.346 46.9706 14.3953 46.9706 12.2634C46.9706 10.3966 45.8939 8.70262 44.2202 7.49504C42.5433 6.28521 40.2325 5.53212 37.647 5.53212C35.3616 5.53212 33.2937 6.12022 31.6875 7.08993H28.0372C30.1767 4.88334 33.6672 3.4165 37.647 3.4165C40.9595 3.4165 43.9394 4.43289 46.0802 6.05269C48.2207 7.67226 49.5 9.87283 49.5 12.2634C49.5 15.1293 47.6547 17.7304 44.6988 19.3708C44.6305 19.4076 44.5611 19.4429 44.4906 19.4765Z" fill="#4E9F32" stroke="black"/>
</g>
<g clip-path="url(#clip1_116_17)">
<path d="M30.6283 33.8639V33.9139H30.6783H31.6995C31.9553 33.9139 32.2018 34.0267 32.3845 34.2295C32.5673 34.4325 32.6707 34.7089 32.6707 34.998C32.6707 35.2872 32.5673 35.5636 32.3845 35.7666C32.2018 35.9694 31.9553 36.0822 31.6995 36.0822H30.6783H30.6283V36.1322V37.2664C30.6283 37.5556 30.5248 37.832 30.342 38.035C30.1593 38.2378 29.9128 38.3506 29.657 38.3506C29.4012 38.3506 29.1547 38.2378 28.972 38.035C28.7892 37.832 28.6858 37.5556 28.6858 37.2664V36.1322V36.0822H28.6358H27.6145C27.3587 36.0822 27.1122 35.9694 26.9296 35.7666C26.7468 35.5636 26.6433 35.2872 26.6433 34.998C26.6433 34.7089 26.7468 34.4325 26.9296 34.2295C27.1122 34.0267 27.3587 33.9139 27.6145 33.9139H28.6358H28.6858V33.8639V32.7297C28.6858 32.4405 28.7892 32.1641 28.972 31.9611C29.1547 31.7583 29.4012 31.6455 29.657 31.6455C29.9128 31.6455 30.1593 31.7583 30.342 31.9611C30.5248 32.1641 30.6283 32.4405 30.6283 32.7297V33.8639ZM37.3839 39.5035L37.3689 39.4848H37.3449H34.224H34.2001L34.1851 39.5035C33.5088 40.3432 32.6546 40.9811 31.7005 41.3598C30.7465 41.7385 29.7226 41.846 28.7219 41.6728C27.7211 41.4996 26.7747 41.051 25.9691 40.3674C25.1634 39.6837 24.524 38.7866 24.1097 37.7575C23.6953 36.7284 23.5192 35.6003 23.5976 34.4759C23.676 33.3516 24.0064 32.2672 24.5584 31.3215C25.1104 30.3758 25.8663 29.5991 26.7568 29.0616C27.6473 28.5242 28.6443 28.2428 29.657 28.2429H41.9119C42.9247 28.2428 43.9216 28.5242 44.8121 29.0616C45.7026 29.5991 46.4585 30.3758 47.0105 31.3215C47.5625 32.2672 47.8929 33.3516 47.9713 34.4759C48.0497 35.6003 47.8737 36.7284 47.4593 37.7575C47.0449 38.7866 46.4055 39.6837 45.5998 40.3674C44.7942 41.051 43.8478 41.4996 42.8471 41.6728C41.8463 41.846 40.8224 41.7385 39.8684 41.3598C38.9143 40.9811 38.0601 40.3432 37.3839 39.5035ZM29.657 30.4113C28.9662 30.4113 28.2867 30.6032 27.6804 30.9692C27.0742 31.3351 26.5605 31.8634 26.1859 32.5053C25.8113 33.1472 25.5874 33.8826 25.5343 34.6446C25.4812 35.4066 25.6006 36.1713 25.8817 36.8693C26.1629 37.5673 26.597 38.1766 27.145 38.6415C27.6931 39.1065 28.3377 39.4121 29.0201 39.5301C29.7026 39.6481 30.4008 39.5746 31.0509 39.3164C31.701 39.0582 32.282 38.6238 32.7413 38.0532C32.7413 38.0532 32.7413 38.0532 32.7413 38.0532L33.3349 37.3164H38.234L38.8276 38.0532C38.8276 38.0532 38.8276 38.0532 38.8276 38.0532C39.2869 38.6238 39.8679 39.0582 40.518 39.3164C41.1681 39.5746 41.8663 39.6481 42.5488 39.5301C43.2313 39.4121 43.8758 39.1065 44.4239 38.6415C44.9719 38.1766 45.406 37.5673 45.6872 36.8693C45.9683 36.1713 46.0877 35.4066 46.0346 34.6446C45.9815 33.8826 45.7576 33.1472 45.383 32.5053C45.0084 31.8634 44.4948 31.3351 43.8885 30.9692C43.2822 30.6032 42.6027 30.4113 41.9119 30.4113H29.657ZM41.9119 33.8139C41.6561 33.8139 41.4096 33.701 41.2269 33.4982C41.0441 33.2952 40.9407 33.0188 40.9407 32.7297C40.9407 32.4405 41.0441 32.1641 41.2269 31.9611C41.4096 31.7583 41.6561 31.6455 41.9119 31.6455C42.1677 31.6455 42.4142 31.7583 42.5969 31.9611C42.7797 32.1641 42.8832 32.4405 42.8832 32.7297C42.8832 33.0188 42.7797 33.2952 42.5969 33.4982C42.4142 33.701 42.1677 33.8139 41.9119 33.8139ZM39.8694 36.0822C39.6136 36.0822 39.3671 35.9694 39.1845 35.7666C39.0017 35.5636 38.8982 35.2872 38.8982 34.998C38.8982 34.7089 39.0017 34.4325 39.1845 34.2295C39.3671 34.0267 39.6136 33.9139 39.8694 33.9139C40.1252 33.9139 40.3718 34.0267 40.5544 34.2295C40.7372 34.4325 40.8407 34.7089 40.8407 34.998C40.8407 35.2872 40.7372 35.5636 40.5544 35.7666C40.3718 35.9694 40.1252 36.0822 39.8694 36.0822ZM43.9544 36.0822C43.6986 36.0822 43.4521 35.9694 43.2694 35.7666C43.0866 35.5636 42.9832 35.2872 42.9832 34.998C42.9832 34.7089 43.0866 34.4325 43.2694 34.2295C43.4521 34.0267 43.6986 33.9139 43.9544 33.9139C44.2102 33.9139 44.4567 34.0267 44.6394 34.2295C44.8222 34.4325 44.9256 34.7089 44.9256 34.998C44.9256 35.2872 44.8222 35.5636 44.6394 35.7666C44.4567 35.9694 44.2102 36.0822 43.9544 36.0822ZM41.9119 38.3506C41.6561 38.3506 41.4096 38.2378 41.2269 38.035C41.0441 37.832 40.9407 37.5556 40.9407 37.2664C40.9407 36.9773 41.0441 36.7009 41.2269 36.4979C41.4096 36.2951 41.6561 36.1822 41.9119 36.1822C42.1677 36.1822 42.4142 36.2951 42.5969 36.4979C42.7797 36.7009 42.8832 36.9773 42.8832 37.2664C42.8832 37.5556 42.7797 37.832 42.5969 38.035C42.4142 38.2378 42.1677 38.3506 41.9119 38.3506Z" fill="#4E9F32" stroke="black" stroke-width="0.1"/>
</g>
<defs>
<clipPath id="clip0_116_17">
<rect width="35.6506" height="36.2181" fill="white" transform="translate(14.3494)"/>
</clipPath>
<clipPath id="clip1_116_17">
<rect width="24.5098" height="27.2207" fill="white" transform="translate(23.5294 21.3877)"/>
</clipPath>
</defs>
</svg>
