<svg width="60" height="51" viewBox="0 0 60 51" fill="none" xmlns="http://www.w3.org/2000/svg">
<g clip-path="url(#clip0_106_76)">
<path d="M14.2917 20.4167V38.7917C14.2917 39.3332 14.5068 39.8525 14.8897 40.2354C15.2726 40.6183 15.7919 40.8334 16.3333 40.8334H32.6667C33.2082 40.8334 33.7275 40.6183 34.1104 40.2354C34.4932 39.8525 34.7083 39.3332 34.7083 38.7917V20.4167H14.2917ZM14.2917 16.3334V10.2084C14.2917 8.58392 14.937 7.02601 16.0856 5.87734C17.2343 4.72868 18.7922 4.08337 20.4167 4.08337H28.5833C30.2078 4.08337 31.7657 4.72868 32.9144 5.87734C34.063 7.02601 34.7083 8.58392 34.7083 10.2084V16.3334H38.7917V38.7917C38.7917 40.4162 38.1464 41.9741 36.9977 43.1227C35.849 44.2714 34.2911 44.9167 32.6667 44.9167H16.3333C14.7089 44.9167 13.151 44.2714 12.0023 43.1227C10.8537 41.9741 10.2083 40.4162 10.2083 38.7917V16.3334H14.2917ZM18.375 16.3334H30.625V10.2084C30.625 9.66689 30.4099 9.14758 30.027 8.7647C29.6441 8.38181 29.1248 8.16671 28.5833 8.16671H20.4167C19.8752 8.16671 19.3559 8.38181 18.973 8.7647C18.5901 9.14758 18.375 9.66689 18.375 10.2084V16.3334Z" fill="#A6BD1B"/>
</g>
<path d="M44.375 41.7917H44.3049C43.9588 41.7917 43.6269 41.6625 43.3822 41.4326C43.1375 41.2028 43 40.891 43 40.5659C43 40.2233 42.8551 39.8948 42.5973 39.6525C42.3394 39.4103 41.9897 39.2742 41.625 39.2742C41.2603 39.2742 40.9106 39.4103 40.6527 39.6525C40.3949 39.8948 40.25 40.2233 40.25 40.5659C40.25 41.5761 40.6772 42.545 41.4376 43.2593C42.1981 43.9737 43.2295 44.375 44.3049 44.375H44.375V45.6667C44.375 46.0092 44.5199 46.3378 44.7777 46.58C45.0356 46.8222 45.3853 46.9583 45.75 46.9583C46.1147 46.9583 46.4644 46.8222 46.7223 46.58C46.9801 46.3378 47.125 46.0092 47.125 45.6667V44.375C48.219 44.375 49.2682 43.9667 50.0418 43.24C50.8154 42.5133 51.25 41.5277 51.25 40.5C51.25 39.4723 50.8154 38.4867 50.0418 37.76C49.2682 37.0333 48.219 36.625 47.125 36.625V34.0417H47.1553C47.8978 34.0417 48.5 34.6074 48.5 35.3049C48.5 35.6475 48.6449 35.976 48.9027 36.2183C49.1606 36.4605 49.5103 36.5966 49.875 36.5966C50.2397 36.5966 50.5894 36.4605 50.8473 36.2183C51.1051 35.976 51.25 35.6475 51.25 35.3049C51.25 34.2847 50.8186 33.3063 50.0507 32.585C49.2828 31.8636 48.2412 31.4583 47.1553 31.4583H47.125V30.1667C47.125 29.8241 46.9801 29.4956 46.7223 29.2533C46.4644 29.0111 46.1147 28.875 45.75 28.875C45.3853 28.875 45.0356 29.0111 44.7777 29.2533C44.5199 29.4956 44.375 29.8241 44.375 30.1667V31.4583C43.8333 31.4583 43.2969 31.5586 42.7964 31.7533C42.296 31.948 41.8412 32.2335 41.4582 32.5933C41.0751 32.9531 40.7713 33.3803 40.564 33.8504C40.3567 34.3206 40.25 34.8245 40.25 35.3333C40.25 35.8422 40.3567 36.3461 40.564 36.8162C40.7713 37.2864 41.0751 37.7135 41.4582 38.0734C41.8412 38.4332 42.296 38.7186 42.7964 38.9134C43.2969 39.1081 43.8333 39.2083 44.375 39.2083V41.7917ZM47.125 41.7917V39.2083C47.4897 39.2083 47.8394 39.3444 48.0973 39.5867C48.3551 39.8289 48.5 40.1574 48.5 40.5C48.5 40.8426 48.3551 41.1711 48.0973 41.4133C47.8394 41.6556 47.4897 41.7917 47.125 41.7917ZM44.375 34.0417V36.625C44.0103 36.625 43.6606 36.4889 43.4027 36.2467C43.1449 36.0044 43 35.6759 43 35.3333C43 34.9908 43.1449 34.6622 43.4027 34.42C43.6606 34.1778 44.0103 34.0417 44.375 34.0417ZM45.75 50.8333C38.1559 50.8333 32 45.0505 32 37.9167C32 30.7828 38.1559 25 45.75 25C53.3441 25 59.5 30.7828 59.5 37.9167C59.5 45.0505 53.3441 50.8333 45.75 50.8333Z" fill="#A6BD1B"/>
<defs>
<clipPath id="clip0_106_76">
<rect width="49" height="49" fill="white"/>
</clipPath>
</defs>
</svg>
