<svg width="82" height="69" viewBox="0 0 82 69" fill="none" xmlns="http://www.w3.org/2000/svg">
<path d="M24 61C28.2435 61 32.3131 59.3143 35.3137 56.3137C38.3143 53.3131 40 49.2435 40 45C40 40.7565 38.3143 36.6869 35.3137 33.6863C32.3131 30.6857 28.2435 29 24 29C19.7565 29 15.6869 30.6857 12.6863 33.6863C9.68571 36.6869 8 40.7565 8 45C8 49.2435 9.68571 53.3131 12.6863 56.3137C15.6869 59.3143 19.7565 61 24 61ZM24 65C12.954 65 4 56.046 4 45C4 33.954 12.954 25 24 25C35.046 25 44 33.954 44 45C44 56.046 35.046 65 24 65Z" fill="#4E9F32"/>
<path d="M14 45C14 41.58 12.924 38.342 11 35.668C9.04427 38.3862 7.99458 41.6514 8.00001 45C8.00001 48.42 9.07601 51.6581 11 54.3321C12.9558 51.6139 14.0054 48.3487 14 45ZM4.00001 45C3.99689 42.1108 4.6212 39.2552 5.82979 36.6309C7.03838 34.0065 8.80243 31.6759 11 29.8C13.1976 31.6759 14.9616 34.0065 16.1702 36.6309C17.3788 39.2552 18.0031 42.1108 18 45C18.0031 47.8893 17.3788 50.7449 16.1702 53.3692C14.9616 55.9936 13.1976 58.3242 11 60.2001C8.80243 58.3242 7.03838 55.9936 5.82979 53.3692C4.6212 50.7449 3.99689 47.8893 4.00001 45ZM34 45C34 48.42 35.076 51.6581 37 54.3321C38.9558 51.6139 40.0054 48.3487 40 45C40 41.58 38.924 38.342 37 35.668C35.0443 38.3862 33.9946 41.6514 34 45ZM44 45C44.0031 47.8893 43.3788 50.7449 42.1702 53.3692C40.9616 55.9936 39.1976 58.3242 37 60.2001C34.8024 58.3242 33.0384 55.9936 31.8298 53.3692C30.6212 50.7449 29.9969 47.8893 30 45C29.9969 42.1108 30.6212 39.2552 31.8298 36.6309C33.0384 34.0065 34.8024 31.6759 37 29.8C39.1976 31.6759 40.9616 34.0065 42.1702 36.6309C43.3788 39.2552 44.0031 42.1108 44 45Z" fill="#4E9F32"/>
<path d="M26 43H42V47H26V63H22V47H6V43H22V27H26V43Z" fill="#4E9F32"/>
<g clip-path="url(#clip0_106_77)">
<path d="M44.4583 19.875H46.6667C47.2524 19.875 47.8141 20.1076 48.2282 20.5218C48.6423 20.9359 48.875 21.4976 48.875 22.0833C48.875 22.669 48.6423 23.2307 48.2282 23.6448C47.8141 24.059 47.2524 24.2916 46.6667 24.2916H44.4583V26.5C44.4583 27.0857 44.2257 27.6474 43.8115 28.0615C43.3974 28.4757 42.8357 28.7083 42.25 28.7083C41.6643 28.7083 41.1026 28.4757 40.6885 28.0615C40.2743 27.6474 40.0417 27.0857 40.0417 26.5V24.2916H37.8333C37.2476 24.2916 36.6859 24.059 36.2718 23.6448C35.8577 23.2307 35.625 22.669 35.625 22.0833C35.625 21.4976 35.8577 20.9359 36.2718 20.5218C36.6859 20.1076 37.2476 19.875 37.8333 19.875H40.0417V17.6666C40.0417 17.081 40.2743 16.5193 40.6885 16.1051C41.1026 15.691 41.6643 15.4583 42.25 15.4583C42.8357 15.4583 43.3974 15.691 43.8115 16.1051C44.2257 16.5193 44.4583 17.081 44.4583 17.6666V19.875ZM49.5772 11.0416H61.4227C63.4192 9.7166 65.7375 8.95771 68.131 8.84577C70.5245 8.73383 72.9036 9.27303 75.0149 10.406C77.1263 11.5389 78.8909 13.2232 80.1209 15.2795C81.351 17.3358 82.0004 19.6872 82 22.0833C82 29.4017 76.0684 44.1666 68.75 44.1666C64.3863 44.1666 60.5151 38.9152 58.1014 33.125H52.8986C50.4871 38.9152 46.6137 44.1666 42.25 44.1666C34.9316 44.1666 29 29.4017 29 22.0833C28.9996 19.6872 29.649 17.3358 30.8791 15.2795C32.1091 13.2232 33.8737 11.5389 35.9851 10.406C38.0964 9.27303 40.4755 8.73383 42.869 8.84577C45.2625 8.95771 47.5808 9.7166 49.5772 11.0416ZM62.7566 15.4583H48.2434L47.1304 14.7185C45.7993 13.8362 44.2538 13.3312 42.6585 13.2573C41.0632 13.1835 39.4777 13.5435 38.0707 14.2991C36.6637 15.0547 35.4879 16.1776 34.6684 17.5483C33.8489 18.919 33.4163 20.4863 33.4167 22.0833C33.4167 28.9667 39.0302 39.75 42.25 39.75C43.8444 39.75 46.6755 36.5744 48.822 31.4246L49.9571 28.7083H61.0473L62.1802 31.4246C64.3245 36.5744 67.1556 39.75 68.75 39.75C71.9697 39.75 77.5833 28.9667 77.5833 22.0833C77.5837 20.4863 77.1511 18.919 76.3316 17.5483C75.5121 16.1776 74.3363 15.0547 72.9293 14.2991C71.5223 13.5435 69.9368 13.1835 68.3415 13.2573C66.7462 13.3312 65.2007 13.8362 63.8696 14.7185L62.7566 15.4583ZM68.75 19.875C68.1643 19.875 67.6026 19.6423 67.1885 19.2282C66.7743 18.814 66.5417 18.2523 66.5417 17.6666C66.5417 17.081 66.7743 16.5193 67.1885 16.1051C67.6026 15.691 68.1643 15.4583 68.75 15.4583C69.3357 15.4583 69.8974 15.691 70.3115 16.1051C70.7257 16.5193 70.9583 17.081 70.9583 17.6666C70.9583 18.2523 70.7257 18.814 70.3115 19.2282C69.8974 19.6423 69.3357 19.875 68.75 19.875ZM64.3333 24.2916C63.7476 24.2916 63.1859 24.059 62.7718 23.6448C62.3577 23.2307 62.125 22.669 62.125 22.0833C62.125 21.4976 62.3577 20.9359 62.7718 20.5218C63.1859 20.1076 63.7476 19.875 64.3333 19.875C64.919 19.875 65.4807 20.1076 65.8949 20.5218C66.309 20.9359 66.5417 21.4976 66.5417 22.0833C66.5417 22.669 66.309 23.2307 65.8949 23.6448C65.4807 24.059 64.919 24.2916 64.3333 24.2916ZM73.1667 24.2916C72.581 24.2916 72.0193 24.059 71.6051 23.6448C71.191 23.2307 70.9583 22.669 70.9583 22.0833C70.9583 21.4976 71.191 20.9359 71.6051 20.5218C72.0193 20.1076 72.581 19.875 73.1667 19.875C73.7524 19.875 74.3141 20.1076 74.7282 20.5218C75.1423 20.9359 75.375 21.4976 75.375 22.0833C75.375 22.669 75.1423 23.2307 74.7282 23.6448C74.3141 24.059 73.7524 24.2916 73.1667 24.2916ZM68.75 28.7083C68.1643 28.7083 67.6026 28.4757 67.1885 28.0615C66.7743 27.6474 66.5417 27.0857 66.5417 26.5C66.5417 25.9143 66.7743 25.3526 67.1885 24.9385C67.6026 24.5243 68.1643 24.2916 68.75 24.2916C69.3357 24.2916 69.8974 24.5243 70.3115 24.9385C70.7257 25.3526 70.9583 25.9143 70.9583 26.5C70.9583 27.0857 70.7257 27.6474 70.3115 28.0615C69.8974 28.4757 69.3357 28.7083 68.75 28.7083Z" fill="#4E9F32"/>
</g>
<defs>
<clipPath id="clip0_106_77">
<rect width="53" height="53" fill="white" transform="translate(29)"/>
</clipPath>
</defs>
</svg>
