<svg width="51" height="54" viewBox="0 0 51 54" fill="none" xmlns="http://www.w3.org/2000/svg">
<path d="M18.2216 21.5639C17.2668 21.5639 16.3511 21.9432 15.676 22.6183C15.0009 23.2934 14.6216 24.2091 14.6216 25.1639V46.7639C14.6216 47.7186 15.0009 48.6343 15.676 49.3095C16.3511 49.9846 17.2668 50.3639 18.2216 50.3639H30.8216C31.7764 50.3639 32.692 49.9846 33.3672 49.3095C34.0423 48.6343 34.4216 47.7186 34.4216 46.7639V25.1639C34.4216 24.2091 34.0423 23.2934 33.3672 22.6183C32.692 21.9432 31.7764 21.5639 30.8216 21.5639H18.2216ZM37.7948 23.3639H39.8216C41.7311 23.3639 43.5625 24.1224 44.9127 25.4727C46.263 26.823 47.0216 28.6543 47.0216 30.5639V35.9639C47.0216 37.8734 46.263 39.7048 44.9127 41.055C43.5625 42.4053 41.7311 43.1639 39.8216 43.1639H38.0216V46.7639C38.0216 48.6734 37.263 50.5048 35.9127 51.855C34.5625 53.2053 32.7311 53.9639 30.8216 53.9639H18.2216C16.312 53.9639 14.4807 53.2053 13.1304 51.855C11.7801 50.5048 11.0216 48.6734 11.0216 46.7639V25.1639C11.0216 23.2543 11.7801 21.423 13.1304 20.0727C14.4807 18.7224 16.312 17.9639 18.2216 17.9639H30.8216C32.4179 17.9641 33.969 18.4946 35.2312 19.472C36.4933 20.4494 37.3951 21.8183 37.7948 23.3639ZM38.0216 39.5639H39.8216C40.7764 39.5639 41.692 39.1846 42.3672 38.5095C43.0423 37.8343 43.4216 36.9186 43.4216 35.9639V30.5639C43.4216 29.6091 43.0423 28.6934 42.3672 28.0183C41.692 27.3432 40.7764 26.9639 39.8216 26.9639H38.0216V39.5639Z" fill="#130985"/>
<path d="M30.311 6.45106L23.542 28.0675L21.9052 28.864C19.954 29.8104 18.1479 32.021 17.2693 34.8227C15.8975 39.2092 17.3268 43.0375 19.7019 43.6568C22.0743 44.2755 25.5058 41.7133 26.8795 37.3303C27.7562 34.5252 27.5033 31.7791 26.3936 30.033L25.4651 28.5675L32.2323 6.9521C32.3057 6.70253 32.2767 6.43885 32.1515 6.21784C32.0264 5.99683 31.8151 5.83617 31.5631 5.77047C31.3112 5.70477 31.0388 5.73929 30.8046 5.86659C30.5704 5.99389 30.3931 6.20378 30.311 6.45106ZM26.4656 5.44828C26.8591 4.19155 27.7426 3.1183 28.9219 2.46463C30.1011 1.81096 31.4795 1.63042 32.7538 1.96272C34.028 2.29502 35.0938 3.11295 35.7166 4.23656C36.3395 5.36018 36.4683 6.69744 36.0749 7.95417L29.8388 27.873C31.5183 30.5171 31.9554 34.3882 30.7211 38.3307C28.7561 44.612 23.2902 48.6917 18.5137 47.4476C13.7389 46.2024 11.4616 40.1019 13.4267 33.8207C14.6619 29.8799 17.2757 26.803 20.2313 25.3662L26.4656 5.44828Z" fill="#130985"/>
</svg>
