<svg width="67" height="44" viewBox="0 0 67 44" fill="none" xmlns="http://www.w3.org/2000/svg">
<path d="M19.1667 36.6667V5.50008H15.3333V36.6667H9.58334V3.66675H30.6667C32.1917 3.66675 33.6542 4.24621 34.7325 5.27766C35.8109 6.30911 36.4167 7.70806 36.4167 9.16675V31.1667C36.4167 32.6254 35.8109 34.0244 34.7325 35.0558C33.6542 36.0873 32.1917 36.6667 30.6667 36.6667H19.1667ZM21.0833 11.0001V14.6667H30.6667V11.0001H21.0833ZM21.0833 16.5001V20.1667H30.6667V16.5001H21.0833ZM15.3333 36.6667H19.1667V40.3334H15.3333V36.6667Z" fill="#A2672F"/>
<path d="M53.4929 16.6258L40.3125 29.8062L39.4506 32.7462L42.3308 31.9135L55.555 18.6893L53.4929 16.6258ZM55.7417 14.3771L57.8037 16.4391L59.7258 14.5171C59.8625 14.3803 59.9393 14.1949 59.9393 14.0015C59.9393 13.8082 59.8625 13.6227 59.7258 13.486L58.6933 12.455C58.5566 12.3183 58.3711 12.2415 58.1778 12.2415C57.9844 12.2415 57.799 12.3183 57.6623 12.455L55.7431 14.3771H55.7417ZM60.7569 10.3929L61.7879 11.4239C62.4714 12.1076 62.8554 13.0348 62.8554 14.0015C62.8554 14.9683 62.4714 15.8954 61.7879 16.5791L43.8621 34.5064L37.7079 36.2856C37.4571 36.3579 37.1914 36.3616 36.9386 36.2962C36.6859 36.2308 36.4553 36.0988 36.271 35.9139C36.0867 35.729 35.9554 35.498 35.8909 35.245C35.8263 34.9921 35.8308 34.7264 35.9039 34.4758L37.7239 28.2706L55.6031 10.3914C56.2868 9.70794 57.214 9.32397 58.1807 9.32397C59.1475 9.32397 60.0746 9.70794 60.7583 10.3914L60.7569 10.3929Z" fill="#A3672F"/>
</svg>
